<svg version="1.0" xmlns="http://www.w3.org/2000/svg" width="800.000000pt" height="600.000000pt" viewBox="0 0 800.000000 600.000000" preserveAspectRatio="xMidYMid meet">
<metadata>
Created by CoolUtils
</metadata>
<g transform="translate(0.000000,600.000000) scale(0.100000,-0.100000)" fill="#000000" stroke="none">
<path d="M2645 4109 c-223 -21 -406 -101 -540 -234 -64 -63 -90 -98 -122 -165
-47 -97 -72 -183 -80 -282 l-6 -68 300 0 300 0 7 48 c7 57 50 129 97 165 97
73 290 74 385 2 47 -36 67 -86 62 -156 -5 -73 -27 -106 -94 -139 -45 -22 -63
-25 -211 -28 l-163 -4 0 -208 0 -208 138 -4 c130 -3 140 -5 191 -33 32 -18 64
-46 80 -69 22 -34 26 -50 26 -116 0 -68 -3 -82 -30 -126 -24 -37 -44 -56 -90
-79 -51 -26 -68 -30 -139 -29 -189 2 -295 111 -313 321 l-6 73 -308 0 c-202 0
-310 -4 -314 -10 -10 -17 14 -217 36 -300 30 -114 100 -248 170 -324 164 -179
406 -266 741 -266 266 0 493 58 654 168 72 48 171 154 205 217 25 46 42 58 38
28 -1 -10 -1 -96 0 -190 l1 -173 305 0 305 0 0 657 c0 361 3 653 6 650 7 -7
51 -180 169 -662 41 -170 94 -385 117 -477 l41 -168 273 0 c240 0 274 2 274
15 0 13 91 385 277 1135 l38 155 3 -652 2 -653 310 0 310 0 0 1075 0 1075
-454 0 -453 0 -12 -42 c-6 -24 -51 -207 -100 -408 -217 -886 -190 -785 -201
-774 -5 5 -41 142 -81 304 -40 162 -107 435 -148 605 l-77 310 -454 0 -455 0
-2 -180 c-3 -231 -3 -253 -10 -235 -16 45 -70 142 -104 187 -112 149 -332 247
-609 273 -127 11 -167 11 -285 -1z m1015 -1008 c0 -109 -3 -213 -6 -230 l-7
-32 -32 48 c-37 55 -122 138 -160 155 -14 6 -25 14 -25 18 0 4 23 21 51 39 56
37 114 105 143 168 10 24 23 40 27 37 5 -3 9 -94 9 -203z" data-index="0" style="opacity: 1; visibility: visible; fill: rgb(194, 194, 194);"></path>
</g>
</svg>