<svg version="1.0" xmlns="http://www.w3.org/2000/svg" width="1200.000000pt" height="630.000000pt" viewBox="0 0 1200.000000 630.000000" preserveAspectRatio="xMidYMid meet">
<metadata>
Created by CoolUtils
</metadata>
<g transform="translate(0.000000,630.000000) scale(0.100000,-0.100000)" fill="#000000" stroke="none">
<path d="M2430 3828 c0 -2 85 -232 188 -513 l188 -510 -169 -3 c-94 -1 -172 0
-175 3 -4 4 108 403 136 483 3 9 -35 12 -170 12 l-175 0 -123 -402 c-67 -222
-125 -409 -128 -415 -3 -10 129 -13 642 -13 355 0 646 1 646 3 0 6 -471 1340
-476 1348 -4 8 -384 14 -384 7z" data-index="0" style="opacity: 1; visibility: visible; fill: rgb(163, 163, 163);"></path>
<path d="M4053 3819 c-222 -22 -412 -97 -524 -209 -117 -117 -168 -258 -169
-458 -1 -435 260 -659 785 -674 l100 -3 3 148 c1 81 1 147 0 148 -2 0 -61 4
-133 9 -209 13 -290 52 -345 163 -52 105 -61 235 -25 362 41 147 172 215 413
215 l92 0 0 155 0 155 -52 -1 c-29 -1 -94 -6 -145 -10z" data-index="1" style="opacity: 1; visibility: visible; fill: rgb(163, 163, 163);"></path>
<path d="M5330 3155 l0 -675 185 0 185 0 0 675 0 675 -185 0 -185 0 0 -675z" data-index="2" style="opacity: 1; visibility: visible; fill: rgb(163, 163, 163);"></path>
<path d="M5780 3675 l0 -155 229 0 c126 0 243 -3 260 -6 17 -4 45 -19 61 -34
24 -22 30 -37 30 -68 0 -55 -7 -70 -44 -90 -26 -14 -68 -17 -283 -20 l-253 -4
0 -409 0 -409 185 0 185 0 0 258 0 259 103 7 c256 16 409 84 472 211 29 57 30
66 30 190 0 119 -2 135 -26 186 -47 101 -144 171 -281 204 -69 17 -339 34
-540 35 l-128 0 0 -155z" data-index="3" style="opacity: 1; visibility: visible; fill: rgb(163, 163, 163);"></path>
<path d="M6810 3155 l0 -675 450 0 450 0 0 150 0 150 -265 0 -265 0 0 525 0
525 -185 0 -185 0 0 -675z" data-index="4" style="opacity: 1; visibility: visible; fill: rgb(163, 163, 163);"></path>
<path d="M8190 3817 c0 -9 320 -887 365 -999 7 -17 -5 -18 -169 -18 -97 0
-176 3 -176 8 0 4 32 113 70 242 39 129 70 238 70 242 0 4 -78 8 -172 8 l-173
0 -123 -403 c-67 -221 -122 -408 -122 -414 0 -10 135 -13 640 -13 352 0 640 3
640 6 0 4 -107 310 -237 680 l-237 674 -188 0 c-147 0 -188 -3 -188 -13z" data-index="5" style="opacity: 1; visibility: visible; fill: rgb(163, 163, 163);"></path>
<path d="M4290 3671 l0 -151 229 0 c126 0 243 -3 260 -6 17 -4 45 -19 61 -34
25 -23 30 -36 30 -73 0 -59 -23 -86 -80 -98 -25 -4 -147 -8 -273 -9 l-228 0 3
-147 3 -148 226 -5 c224 -5 226 -5 266 -32 69 -46 77 -75 83 -298 l5 -195 178
-3 177 -2 0 186 c0 293 -17 350 -128 438 l-62 50 59 37 c83 52 126 99 151 166
30 79 32 201 5 258 -27 55 -95 119 -160 149 -109 52 -157 58 -492 63 l-313 5
0 -151z" data-index="6" style="opacity: 1; visibility: visible; fill: rgb(163, 163, 163);"></path>
<path d="M9180 3767 c0 -81 19 -167 48 -217 15 -25 105 -148 201 -275 176
-234 221 -306 221 -360 -1 -48 -35 -114 -67 -127 -17 -7 -115 -13 -250 -16
l-223 -4 0 -144 0 -144 258 0 c285 0 356 8 446 49 119 54 175 142 183 290 6
98 -13 195 -51 270 -13 25 -110 171 -216 325 -105 153 -196 292 -201 310 -5
17 -9 46 -9 63 l0 33 -170 0 -170 0 0 -53z" data-index="7" style="visibility: visible; fill: rgb(163, 163, 163); opacity: 1;"></path>
</g>
</svg>