<?xml version="1.0" standalone="no"?>
<!DOCTYPE svg PUBLIC "-//W3C//DTD SVG 20010904//EN"
 "http://www.w3.org/TR/2001/REC-SVG-20010904/DTD/svg10.dtd">
<svg version="1.0" xmlns="http://www.w3.org/2000/svg"
 width="866.000000pt" height="650.000000pt" viewBox="0 0 866.000000 650.000000"
 preserveAspectRatio="xMidYMid meet">
<metadata>
Created by CoolUtils
</metadata>
<g transform="translate(0.000000,650.000000) scale(0.100000,-0.100000)"
fill="#000000" stroke="none">
<path d="M7298 5499 c-698 -28 -1380 -158 -1869 -357 -233 -95 -413 -251
-1339 -1161 -756 -743 -1302 -1256 -1378 -1292 -64 -31 -162 -30 -265 5 -98
33 -195 82 -427 214 -102 59 -232 127 -290 153 -99 45 -219 83 -228 74 -3 -2
22 -42 55 -87 65 -89 188 -308 304 -540 311 -621 655 -1042 1074 -1313 98 -63
271 -156 344 -185 l54 -21 -59 68 c-32 37 -115 131 -184 208 -286 318 -366
420 -422 532 -44 90 -46 172 -5 250 37 71 157 211 263 308 158 144 576 499
954 811 215 178 653 510 915 695 866 611 1680 1059 2510 1381 72 28 263 95
425 148 210 70 288 100 270 103 -47 10 -505 14 -702 6z"/>
<path d="M8075 4976 c-44 -18 -163 -67 -265 -109 -102 -42 -257 -108 -345
-147 -88 -40 -189 -84 -225 -99 -291 -125 -1219 -596 -1660 -844 -793 -445
-1254 -726 -1919 -1170 -390 -260 -851 -590 -851 -608 0 -22 321 -163 576
-254 725 -258 1575 -422 2285 -442 204 -6 220 -5 290 16 300 91 673 474 1042
1072 299 485 599 1143 766 1678 63 205 65 211 47 211 -13 0 -371 -178 -527
-263 -35 -19 -113 -60 -174 -92 -566 -298 -1005 -539 -1585 -870 -361 -207
-1348 -786 -1391 -817 -13 -10 21 1 76 23 107 44 123 50 1175 499 1287 549
1271 542 1277 536 8 -7 -353 -726 -422 -842 -204 -342 -416 -530 -691 -617
-160 -51 -244 -62 -454 -61 -266 1 -466 30 -875 125 -169 40 -576 153 -603
168 -17 9 5 25 313 232 473 318 1105 709 1575 974 85 48 180 102 210 120 264
157 1321 714 1950 1029 178 89 330 171 349 189 76 72 142 216 157 340 8 69 9
68 -101 23z"/>
<path d="M501 3693 c36 -162 127 -498 162 -595 108 -296 236 -460 488 -625 85
-55 358 -196 579 -298 172 -80 193 -88 188 -76 -1 5 -105 121 -229 257 -328
361 -467 520 -691 786 -195 233 -485 600 -495 625 -3 7 -9 13 -13 13 -4 0 1
-39 11 -87z"/>
</g>
</svg>
