<svg version="1.0" xmlns="http://www.w3.org/2000/svg" width="2048.000000pt" height="909.000000pt" viewBox="0 0 2048.000000 909.000000" preserveAspectRatio="xMidYMid meet">
<metadata>
Created by CoolUtils
</metadata>
<g transform="translate(0.000000,909.000000) scale(0.100000,-0.100000)" fill="#000000" stroke="none">
<path d="M4603 7255 c-261 -47 -462 -189 -637 -450 -30 -44 -112 -181 -184
-305 -135 -235 -173 -302 -784 -1395 -207 -368 -514 -917 -683 -1220 -461
-823 -488 -886 -488 -1125 -1 -250 75 -443 242 -622 170 -182 380 -280 660
-308 73 -8 721 -10 2106 -8 1997 4 2000 4 2111 26 246 47 409 127 555 272 101
100 156 182 203 300 55 141 61 175 61 345 0 155 -1 163 -33 255 -44 126 -109
249 -418 790 -264 461 -523 915 -1227 2150 -425 746 -505 878 -596 987 -140
166 -313 266 -531 307 -98 19 -257 19 -357 1z m336 -450 c183 -58 323 -223
352 -415 10 -63 9 -88 -5 -160 -28 -137 29 -32 -1019 -1875 -116 -203 -242
-426 -282 -495 l-71 -125 -173 -3 c-95 -1 -170 1 -168 5 12 20 921 1616 1143
2008 138 242 258 459 267 483 9 23 17 68 17 100 0 130 -119 228 -252 208 -58
-9 -103 -39 -147 -97 -18 -25 -345 -596 -725 -1270 -380 -673 -718 -1271 -751
-1329 l-60 -105 -96 -7 c-53 -4 -133 -15 -178 -26 -44 -11 -81 -17 -81 -15 0
7 1561 2787 1608 2863 117 191 259 278 459 279 61 1 102 -5 162 -24z m1453
-2265 c432 -756 806 -1412 831 -1457 26 -45 58 -116 72 -157 91 -272 -69 -566
-354 -650 -31 -9 -91 -16 -137 -16 -181 0 -318 80 -435 252 -22 32 -330 565
-684 1184 l-643 1126 86 149 c47 82 89 146 92 142 4 -5 312 -543 685 -1198
373 -654 697 -1218 721 -1252 24 -33 59 -70 77 -82 104 -64 245 -21 301 91 30
60 33 108 10 174 -8 25 -286 519 -616 1098 -330 578 -674 1180 -764 1338
l-164 286 45 104 c25 56 53 138 62 180 10 43 21 74 24 70 4 -4 360 -626 791
-1382z m-1409 -483 c103 -178 187 -327 187 -330 0 -4 -169 -7 -376 -7 -207 0
-374 4 -372 8 10 26 364 651 368 652 3 0 89 -146 193 -323z m510 -914 l86
-148 -1432 -5 -1432 -5 -44 -25 c-24 -14 -58 -42 -75 -63 -29 -36 -31 -44 -31
-122 0 -77 2 -86 31 -127 19 -25 52 -53 80 -68 l48 -25 1556 -3 1555 -3 45
-72 c25 -40 76 -105 114 -144 l69 -73 -1669 0 c-1850 0 -1732 -4 -1866 67 -42
22 -88 57 -121 92 -196 212 -194 511 5 709 70 70 149 115 250 142 70 18 127
19 1409 19 l1337 1 85 -147z" data-index="0" style="opacity: 1; visibility: visible; fill: rgb(242, 240, 245);"></path>
<path d="M9544 4725 c3 -11 122 -292 265 -625 l260 -605 192 0 193 0 267 623
266 622 -183 0 c-101 0 -187 1 -191 3 -7 2 -222 -527 -316 -774 l-33 -87 -170
427 -170 426 -192 5 c-189 5 -193 5 -188 -15z" data-index="1" style="opacity: 1; stroke-width: 2px; stroke: rgb(242, 240, 245); visibility: visible; fill: rgb(242, 240, 245);"></path>
<path d="M13648 4740 l-198 -5 275 -398 275 -399 0 -224 0 -224 175 0 175 0 0
223 0 222 280 399 c154 220 278 401 277 402 -2 2 -93 4 -202 4 l-200 2 -128
-204 c-70 -111 -144 -231 -163 -266 l-36 -62 -160 262 c-88 145 -163 265 -166
268 -4 3 -96 3 -204 0z" data-index="2" style="opacity: 1; visibility: visible; fill: rgb(242, 240, 245);"></path>
<path d="M8851 4713 c-30 -66 -511 -1214 -511 -1220 0 -2 84 -3 188 -3 l187 0
50 130 50 130 269 -3 270 -2 49 -127 50 -128 188 0 189 0 -10 26 c-9 23 -342
821 -461 1104 l-48 115 -224 3 -224 2 -12 -27z m259 -328 c7 -22 42 -114 77
-204 35 -90 62 -166 60 -168 -2 -2 -76 -2 -164 -1 l-160 3 64 160 c35 88 71
184 80 213 18 57 24 57 43 -3z" data-index="3" style="visibility: visible; fill: rgb(242, 240, 245); opacity: 1;"></path>
<path d="M11020 4115 l0 -625 565 0 565 0 0 130 0 130 -395 0 -395 0 0 125 0
125 363 2 362 3 3 122 3 123 -363 2 -363 3 -3 113 -3 112 396 0 395 0 0 130 0
130 -565 0 -565 0 0 -625z" data-index="4" style="opacity: 1; visibility: visible; fill: rgb(242, 240, 245);"></path>
<path d="M12290 4115 l0 -625 178 0 177 0 0 492 0 493 205 0 c177 0 209 -2
237 -18 42 -23 63 -64 63 -126 0 -65 -15 -96 -59 -124 -33 -20 -52 -22 -223
-27 l-187 -5 208 -305 c115 -168 221 -322 236 -342 l26 -38 215 0 216 0 -30
38 c-17 20 -109 134 -205 252 l-175 215 58 12 c166 33 270 170 270 354 0 193
-74 315 -218 359 -60 19 -94 20 -528 20 l-464 0 0 -625z" data-index="5" style="opacity: 1; stroke-width: 2px; stroke: rgb(242, 240, 245); visibility: visible; fill: rgb(242, 240, 245);"></path>
<path d="M16365 3134 c-253 -27 -440 -143 -534 -334 -52 -108 -73 -205 -73
-345 0 -206 57 -367 170 -481 145 -145 329 -203 611 -191 230 9 365 61 492
187 127 126 179 266 179 484 0 146 -19 239 -71 345 -78 158 -213 263 -402 311
-77 19 -287 33 -372 24z m250 -308 c143 -38 224 -135 247 -294 9 -64 8 -91 -5
-155 -39 -192 -173 -285 -395 -275 -127 6 -199 33 -263 99 -69 71 -92 138 -92
264 0 192 73 305 230 355 70 23 206 26 278 6z" data-index="6" style="opacity: 1; visibility: visible; fill: rgb(242, 240, 245);"></path>
<path d="M15055 3111 c-200 -33 -323 -122 -366 -263 -42 -139 -8 -287 85 -362
59 -49 139 -87 301 -141 211 -71 235 -87 235 -153 0 -32 -29 -76 -62 -93 -71
-38 -349 -20 -556 37 l-23 6 3 -153 3 -154 110 -17 c269 -43 450 -40 594 8
135 45 219 115 270 223 23 50 26 68 26 161 -1 94 -3 110 -27 156 -15 27 -44
66 -66 86 -71 64 -100 77 -451 205 -56 20 -81 46 -81 81 0 32 30 65 75 83 41
16 196 13 329 -6 60 -8 116 -15 123 -15 11 0 13 28 11 142 l-3 143 -65 12
c-80 16 -396 25 -465 14z" data-index="7" style="opacity: 1; visibility: visible; fill: rgb(242, 240, 245);"></path>
<path d="M8380 2450 l0 -630 420 0 c344 0 435 3 497 16 205 42 342 177 404
399 31 107 33 317 5 415 -65 225 -213 371 -422 415 -54 12 -159 15 -486 15
l-418 0 0 -630z m787 326 c154 -49 231 -201 204 -400 -19 -137 -67 -204 -178
-247 -53 -20 -75 -22 -263 -23 l-205 -1 -3 335 c-1 184 0 341 3 349 8 20 370
10 442 -13z" data-index="8" style="opacity: 1; visibility: visible; fill: rgb(242, 240, 245);"></path>
<path d="M9855 3068 c-3 -7 -4 -290 -3 -628 l3 -615 563 -3 562 -2 0 135 0
135 -395 0 -396 0 3 123 3 122 363 3 362 2 0 125 0 125 -365 0 -365 0 0 110 0
110 395 0 395 0 0 135 0 135 -560 0 c-439 0 -562 -3 -565 -12z" data-index="9" style="opacity: 1; visibility: visible; fill: rgb(242, 240, 245);"></path>
<path d="M11130 2450 l0 -630 165 0 165 0 0 433 c1 342 3 429 13 416 7 -9 125
-203 262 -432 l250 -417 223 0 222 0 0 630 0 630 -165 0 -165 0 -2 -432 -3
-433 -261 430 -262 430 -221 3 -221 2 0 -630z" data-index="10" style="opacity: 1; visibility: visible; fill: rgb(242, 240, 245);"></path>
<path d="M12640 2450 l0 -630 165 0 165 0 2 432 3 433 260 -433 260 -432 223
0 222 0 0 630 0 630 -167 -2 -168 -3 -5 -423 -5 -422 -257 422 -256 423 -221
3 -221 2 0 -630z" data-index="11" style="opacity: 1; visibility: visible; fill: rgb(242, 240, 245);"></path>
<path d="M14150 2450 l0 -630 180 0 180 0 0 630 0 630 -180 0 -180 0 0 -630z" data-index="12" style="opacity: 1; visibility: visible; fill: rgb(242, 240, 245); stroke: rgb(242, 240, 245);"></path>
<path d="M17360 2450 l0 -630 165 0 165 0 1 433 c0 409 1 431 17 408 9 -13
127 -206 262 -430 l245 -406 223 -3 222 -2 0 630 0 630 -165 0 -165 0 -2 -431
-3 -432 -261 429 -260 429 -222 3 -222 2 0 -630z" data-index="13" style="opacity: 1; visibility: visible; fill: rgb(242, 240, 245);"></path>
</g>
</svg>