<svg version="1.0" xmlns="http://www.w3.org/2000/svg" width="512.000000pt" height="512.000000pt" viewBox="0 0 512.000000 512.000000" preserveAspectRatio="xMidYMid meet">
<metadata>
Created by CoolUtils
</metadata>
<g transform="translate(0.000000,512.000000) scale(0.100000,-0.100000)" fill="#000000" stroke="none">
<path d="M0 2560 l0 -2560 2560 0 2560 0 0 2560 0 2560 -2560 0 -2560 0 0
-2560z m4480 844 l0 -1076 -42 6 c-24 3 -223 8 -443 11 -366 6 -412 9 -540 31
l-140 25 -60 58 c-101 97 -134 121 -164 121 -23 0 -53 23 -150 116 -90 87
-130 118 -157 124 l-36 8 28 -31 c16 -18 195 -201 400 -407 l371 -375 21 -125
c19 -110 20 -126 7 -140 -19 -21 -10 -30 32 -30 37 0 37 0 24 103 -7 55 -6 57
16 57 23 0 23 2 17 50 l-7 51 94 -6 c138 -8 589 -25 665 -25 l66 0 -7 -92
c-26 -371 -127 -601 -369 -844 -158 -157 -317 -256 -514 -318 -176 -55 -190
-56 -1032 -56 -854 0 -864 1 -1045 61 -197 66 -360 168 -507 316 -258 262
-368 548 -368 963 l0 115 708 -27 c389 -15 766 -30 839 -33 l132 -7 62 -54
c46 -40 70 -54 93 -54 25 0 49 -17 118 -81 72 -66 93 -80 115 -77 26 3 -13 44
-447 482 -640 644 -828 824 -871 832 l-34 7 60 -64 c33 -35 80 -86 105 -113
l45 -48 -35 7 -35 7 20 -23 c11 -13 42 -48 68 -77 27 -29 47 -55 45 -57 -2 -2
-224 36 -493 85 -268 50 -490 90 -492 90 -2 0 -3 101 -3 224 0 248 11 336 60
489 61 190 167 360 317 509 150 148 301 241 500 307 181 61 123 59 1606 60
l1357 1 0 -1076z" data-index="0" style="opacity: 1; visibility: visible; fill: rgb(219, 218, 221);"></path>
</g>
</svg>