<svg version="1.0" xmlns="http://www.w3.org/2000/svg" width="400.000000pt" height="225.000000pt" viewBox="0 0 400.000000 225.000000" preserveAspectRatio="xMidYMid meet">
<metadata>
Created by CoolUtils
</metadata>
<g transform="translate(0.000000,225.000000) scale(0.100000,-0.100000)" fill="#000000" stroke="none">
<path d="M3775 2018 c-53 -28 -62 -93 -19 -127 32 -25 61 -27 92 -5 52 36 48
100 -9 129 -33 18 -38 18 -64 3z m72 -30 c27 -25 29 -45 7 -76 -21 -30 -77
-30 -98 0 -21 29 -20 40 5 72 25 32 55 33 86 4z" data-index="0" style="opacity: 1; visibility: visible; fill: rgb(204, 203, 205);"></path>
<path d="M3770 1951 c0 -39 13 -55 23 -28 4 10 7 10 18 0 20 -20 25 -16 24 25
0 34 -2 37 -32 40 -32 3 -33 2 -33 -37z m50 8 c0 -5 -7 -9 -15 -9 -15 0 -20
12 -9 23 8 8 24 -1 24 -14z" data-index="1" style="opacity: 1; visibility: visible; fill: rgb(204, 203, 205);"></path>
<path d="M351 1923 c-21 -18 -22 -22 -22 -377 0 -351 0 -360 21 -380 20 -20
31 -21 368 -24 341 -3 349 -2 375 18 l27 21 0 363 c0 339 -1 364 -18 379 -17
15 -57 17 -374 17 -324 0 -358 -2 -377 -17z m287 -67 c50 -27 62 -62 62 -178
l0 -108 -110 0 c-174 0 -190 16 -190 189 l0 111 108 0 c68 -1 115 -5 130 -14z
m420 -76 c4 -113 -4 -148 -40 -182 -29 -27 -33 -28 -144 -28 l-114 0 0 110 c0
60 5 120 11 134 20 44 62 56 179 53 l105 -2 3 -85z m-358 -365 c0 -174 -20
-195 -187 -195 l-113 0 0 114 c0 101 2 116 21 140 31 39 51 45 172 45 l107 1
0 -105z m310 80 c38 -33 50 -77 50 -180 l0 -95 -119 0 c-112 0 -122 2 -148 24
-27 23 -28 28 -33 143 -3 65 -4 122 -2 127 3 4 55 6 117 5 96 -4 116 -7 135
-24z" data-index="2" style="opacity: 1; visibility: visible; fill: rgb(204, 203, 205);"></path>
<path d="M1242 1918 c-15 -15 -17 -724 -2 -748 8 -13 153 -15 1185 -18 810 -1
1182 1 1196 8 19 11 19 22 17 388 l-3 377 -1190 3 c-918 1 -1194 -1 -1203 -10z
m471 -100 c89 -38 146 -131 155 -255 l5 -73 -202 0 c-221 0 -220 1 -178 -60
44 -65 152 -74 229 -19 l30 21 36 -33 c20 -19 41 -37 46 -41 15 -12 -32 -57
-89 -86 -69 -36 -195 -38 -271 -4 -126 57 -193 195 -164 338 39 194 220 289
403 212z m1217 -58 l0 -90 -31 0 c-51 0 -106 -38 -131 -89 -19 -39 -23 -66
-26 -188 l-4 -143 -79 0 -79 0 0 290 0 290 84 0 84 0 -3 -52 c-4 -53 -4 -53
13 -28 31 45 73 78 110 88 64 17 62 20 62 -78z m443 65 c168 -57 248 -266 161
-424 -32 -60 -65 -91 -138 -129 -71 -36 -196 -38 -271 -4 -135 62 -210 212
-171 345 53 182 234 274 419 212z m-1263 -170 c0 -206 8 -236 64 -255 27 -9
44 -9 71 0 59 19 65 44 65 250 l0 180 85 0 85 0 -2 -287 -3 -288 -80 0 -80 0
-5 40 -5 40 -18 -26 c-24 -36 -91 -64 -152 -64 -73 1 -132 36 -164 100 -25 48
-26 57 -29 267 l-4 218 86 0 86 0 0 -175z" data-index="3" style="opacity: 1; visibility: visible; fill: rgb(204, 203, 205);"></path>
<path d="M1528 1694 c-28 -15 -58 -61 -58 -89 0 -13 18 -15 120 -15 71 0 120
4 120 10 0 24 -35 79 -60 94 -34 20 -86 20 -122 0z" data-index="4" style="opacity: 1; stroke-width: 2px; stroke: rgb(204, 203, 205); visibility: visible; fill: rgb(204, 203, 205);"></path>
<path d="M3195 1690 c-11 -4 -33 -22 -50 -40 -28 -29 -30 -37 -30 -104 0 -62
4 -76 25 -103 46 -58 135 -75 198 -37 38 22 72 86 72 135 0 52 -39 121 -80
141 -37 19 -101 23 -135 8z" data-index="5" style="opacity: 1; visibility: visible; fill: rgb(204, 203, 205);"></path>
<path d="M1640 985 l0 -75 -35 0 -35 0 0 -75 0 -75 35 0 35 0 0 -167 c0 -185
8 -217 63 -257 23 -17 43 -21 105 -21 42 1 89 6 105 13 25 11 27 15 27 76 l0
65 -56 -6 c-42 -5 -58 -2 -65 8 -5 8 -9 76 -9 152 l0 137 65 0 65 0 0 75 0 75
-65 0 -64 0 -3 73 -3 72 -82 3 -83 3 0 -76z" data-index="6" style="opacity: 1; visibility: visible; fill: rgb(204, 203, 205);"></path>
<path d="M2057 1054 c-4 -4 -7 -38 -7 -76 l0 -68 -35 0 -35 0 0 -75 0 -75 35
0 35 0 0 -167 c0 -185 8 -217 63 -257 37 -27 148 -34 200 -13 l37 16 0 65 0
65 -50 -6 c-78 -9 -80 -4 -80 158 l0 138 66 3 66 3 0 70 0 70 -65 3 -66 3 -3
72 -3 72 -75 3 c-42 1 -79 0 -83 -4z" data-index="7" style="opacity: 1; visibility: visible; fill: rgb(204, 203, 205);"></path>
<path d="M567 910 c-92 -24 -169 -88 -209 -175 -32 -70 -31 -180 1 -253 67
-149 266 -221 414 -149 29 15 65 39 80 55 l27 28 -49 48 -49 48 -36 -27 c-73
-55 -174 -40 -223 34 -27 40 -31 126 -8 170 43 85 144 108 222 52 l41 -29 29
31 c70 78 69 74 44 101 -52 55 -195 88 -284 66z" data-index="8" style="opacity: 1; visibility: visible; fill: rgb(204, 203, 205);"></path>
<path d="M1144 911 c-155 -40 -254 -173 -242 -325 12 -144 106 -244 260 -277
130 -28 294 58 348 184 47 109 15 265 -69 339 -74 65 -210 102 -297 79z m152
-160 c37 -23 74 -94 74 -142 -1 -57 -33 -115 -79 -138 -102 -52 -209 7 -227
124 -5 35 -1 54 16 91 29 58 70 84 135 84 32 0 62 -7 81 -19z" data-index="9" style="opacity: 1; visibility: visible; fill: rgb(204, 203, 205);"></path>
<path d="M2620 906 c-70 -20 -104 -41 -153 -96 -133 -147 -89 -378 89 -469
211 -109 466 39 466 272 0 167 -123 291 -299 303 -32 2 -78 -2 -103 -10z m168
-156 c97 -59 92 -229 -9 -281 -50 -25 -116 -22 -158 8 -33 24 -71 98 -71 137
0 44 38 115 74 137 42 26 121 25 164 -1z" data-index="10" style="opacity: 1; visibility: visible; fill: rgb(204, 203, 205);"></path>
<path d="M3362 900 c-23 -10 -53 -31 -67 -46 l-25 -27 0 42 0 41 -85 0 -85 0
0 -295 0 -295 85 0 85 0 0 185 c0 116 4 193 11 209 18 39 73 61 118 47 64 -19
71 -43 71 -255 l0 -186 85 0 85 0 0 213 c0 243 -8 286 -66 336 -59 52 -139 64
-212 31z" data-index="11" style="opacity: 1; visibility: visible; fill: rgb(204, 203, 205);"></path>
</g>
</svg>