<svg version="1.0" xmlns="http://www.w3.org/2000/svg" width="1440.000000pt" height="810.000000pt" viewBox="0 0 1440.000000 810.000000" preserveAspectRatio="xMidYMid meet">
<metadata>
Created by CoolUtils
</metadata>
<g transform="translate(0.000000,810.000000) scale(0.100000,-0.100000)" fill="#000000" stroke="none">
<path d="M0 4050 l0 -4050 7200 0 7200 0 0 4050 0 4050 -7200 0 -7200 0 0
-4050z m4090 1279 c0 -10 -77 -214 -111 -294 -4 -11 -20 -51 -34 -90 -15 -38
-36 -94 -48 -122 l-21 -53 -620 -2 -620 -3 -52 -135 -52 -135 484 -3 c377 -2
484 -5 484 -15 0 -12 -36 -110 -105 -287 -18 -47 -48 -123 -66 -170 -18 -47
-37 -91 -42 -97 -7 -10 -123 -13 -496 -15 l-486 -3 -93 -245 c-52 -135 -112
-292 -134 -350 -22 -58 -46 -118 -53 -135 -6 -16 -26 -66 -43 -110 -16 -44
-41 -109 -55 -145 l-25 -65 -466 -3 c-256 -1 -466 -1 -466 0 0 4 77 206 163
428 65 169 148 385 207 540 10 25 45 119 79 210 35 91 69 179 76 195 7 17 22
55 33 85 11 30 62 161 112 290 50 129 97 252 104 272 41 115 169 264 290 337
78 47 234 98 347 115 126 18 1709 22 1709 5z m1066 -51 c-56 -152 -151 -401
-236 -618 -50 -129 -119 -307 -152 -395 -33 -88 -68 -180 -78 -205 -9 -25 -43
-112 -74 -195 -31 -82 -75 -195 -96 -250 -49 -123 -216 -559 -260 -677 l-33
-88 -463 0 c-257 0 -464 4 -464 9 0 9 139 374 337 886 63 165 131 341 150 390
19 50 40 106 48 125 8 19 50 132 95 250 45 118 111 289 147 380 36 91 84 217
108 280 24 63 48 127 54 143 l11 27 464 0 465 0 -23 -62z m2344 59 c0 -1 -18
-49 -41 -107 -22 -58 -44 -116 -49 -130 -14 -44 -112 -294 -121 -312 -9 -17
-35 -18 -317 -18 l-308 0 -13 -37 c-8 -21 -28 -76 -46 -123 -40 -102 -161
-417 -257 -665 -38 -99 -80 -209 -93 -245 -13 -36 -87 -229 -165 -430 -78
-201 -146 -377 -152 -392 l-10 -28 -465 0 c-439 0 -465 1 -460 18 7 22 118
311 197 512 34 85 99 254 145 375 46 121 111 292 145 380 84 218 120 314 136
355 7 19 31 82 54 140 23 58 44 113 47 123 5 16 -14 17 -301 17 -169 0 -306 4
-306 9 0 5 14 44 31 87 17 44 37 95 44 114 7 19 29 76 48 125 20 50 48 123 63
163 l28 72 1083 0 c596 0 1083 -1 1083 -3z m1956 -14 c-3 -10 -44 -117 -89
-238 l-84 -220 -517 -5 -518 -5 -33 -85 c-80 -209 -151 -393 -187 -490 -22
-58 -46 -119 -53 -135 -13 -29 -33 -80 -107 -280 -17 -44 -32 -89 -35 -100 -4
-20 0 -20 507 -17 l511 2 -6 -22 c-4 -13 -45 -122 -92 -243 l-84 -220 -692 2
c-653 3 -696 4 -770 23 -151 38 -216 113 -217 248 0 64 7 90 55 220 31 81 62
163 70 182 16 41 67 175 120 315 21 55 67 174 102 265 78 199 112 289 153 396
35 95 77 161 140 225 55 55 165 122 246 149 130 44 201 48 912 49 637 1 673 0
668 -16z m2054 14 c0 -1 -18 -49 -41 -107 -22 -58 -44 -116 -48 -130 -5 -14
-24 -65 -44 -115 -19 -49 -65 -169 -101 -265 -37 -96 -85 -222 -108 -280 -42
-107 -56 -144 -173 -450 -37 -96 -82 -214 -101 -262 -19 -49 -34 -91 -34 -94
0 -3 -7 -22 -16 -42 -27 -63 -32 -74 -79 -202 l-47 -125 -390 0 c-384 0 -389
0 -385 20 3 11 46 125 96 254 50 129 92 241 93 249 3 13 -22 15 -176 14 -98
-1 -180 -3 -181 -4 -3 -3 -130 -333 -184 -478 l-21 -55 -390 0 c-214 0 -390 3
-390 6 0 3 18 50 39 105 35 86 125 322 375 979 32 83 61 159 66 170 5 11 26
63 45 115 64 166 86 223 117 302 84 216 278 352 553 388 52 6 1525 14 1525 7z
m1690 -19 c155 -43 230 -122 230 -242 0 -84 -5 -98 -197 -589 -30 -76 -67
-174 -83 -217 -90 -245 -206 -358 -437 -425 -113 -33 -266 -44 -619 -45 -249
0 -272 -1 -279 -17 -4 -10 -34 -90 -67 -178 -34 -88 -70 -182 -80 -210 -11
-27 -24 -63 -30 -80 -6 -16 -14 -34 -19 -39 -9 -10 -779 -15 -779 -4 0 8 57
163 76 208 9 19 33 82 55 140 22 58 55 143 74 190 18 47 43 112 55 145 13 33
30 80 40 105 9 25 50 131 89 235 40 105 79 204 86 220 7 17 24 62 38 100 14
39 36 97 49 130 l24 60 387 2 c213 1 387 -1 387 -6 0 -14 -74 -220 -100 -276
-12 -28 -90 -235 -90 -240 0 -3 81 -5 180 -5 l180 0 15 38 c9 20 48 120 87
222 38 102 81 213 94 247 13 34 24 64 24 67 0 3 -256 6 -570 6 -313 0 -570 2
-570 4 0 2 16 46 36 97 20 52 47 123 61 159 38 102 54 142 71 183 l15 38 756
-4 c638 -3 765 -6 811 -19z m-1092 -1688 c12 -11 33 -45 47 -75 13 -30 28 -55
32 -55 4 0 41 26 83 58 99 77 129 92 189 92 l50 0 -14 -37 c-7 -21 -38 -99
-69 -173 -30 -74 -53 -137 -50 -139 3 -3 43 34 91 81 l86 86 -10 38 c-7 32
-13 38 -31 36 -27 -4 -27 0 -5 61 l17 47 78 0 c77 0 78 0 78 -25 0 -14 4 -25
9 -25 5 0 18 11 29 25 18 23 27 25 96 25 42 0 76 -4 76 -8 0 -5 -7 -29 -16
-54 -13 -38 -19 -45 -41 -45 -17 0 -40 -16 -70 -45 l-45 -45 13 -59 c6 -32 14
-75 16 -94 l5 -35 -79 0 c-78 0 -78 0 -81 28 -4 34 -7 34 -37 0 l-23 -28 -166
0 c-183 -1 -180 -2 -150 61 9 19 15 37 12 39 -2 2 -20 -9 -40 -25 -53 -44 -78
-43 -103 2 -11 21 -23 38 -26 38 -4 0 -14 -21 -24 -47 -10 -27 -20 -51 -24
-55 -9 -9 -161 -18 -161 -9 0 4 30 82 66 172 36 90 70 174 75 187 7 18 16 22
52 22 30 0 50 -6 65 -20z m-1354 -530 c61 -5 201 -16 311 -25 110 -8 256 -20
325 -25 69 -5 215 -17 325 -25 110 -8 315 -24 455 -35 140 -10 299 -22 353
-26 92 -6 97 -7 97 -29 0 -21 -5 -23 -82 -29 -46 -3 -200 -15 -343 -26 -143
-11 -354 -26 -470 -35 -115 -9 -293 -22 -395 -30 -102 -8 -255 -19 -340 -25
-85 -6 -206 -15 -267 -21 l-113 -10 -56 45 -56 46 -1873 0 -1873 0 36 85 36
85 1836 0 1835 0 55 45 c62 50 54 49 204 35z" data-index="0" style="opacity: 1; visibility: visible; fill: rgb(191, 191, 191);"></path>
<path d="M10169 4833 c-6 -16 -26 -68 -44 -118 -26 -73 -128 -338 -160 -418
-7 -16 4 -17 176 -15 l183 3 76 195 c96 243 140 359 140 371 0 5 -78 9 -180 9
l-180 0 -11 -27z" data-index="1" style="opacity: 1; visibility: visible; fill: rgb(191, 191, 191);"></path>
</g>
</svg>