<svg version="1.0" xmlns="http://www.w3.org/2000/svg" width="500.000000pt" height="313.000000pt" viewBox="0 0 500.000000 313.000000" preserveAspectRatio="xMidYMid meet">
<metadata>
Created by CoolUtils
</metadata>
<g transform="translate(0.000000,313.000000) scale(0.100000,-0.100000)" fill="#000000" stroke="none">
<path d="M685 2062 c-14 -2 -91 -107 -240 -323 -121 -176 -257 -374 -303 -439
l-82 -120 122 0 123 0 45 65 c25 36 104 150 175 254 l130 189 3 -204 c1 -112
6 -204 11 -204 4 0 54 67 109 149 l102 149 0 241 c0 223 -1 241 -17 242 -63 3
-161 4 -178 1z" data-index="0" style="opacity: 1; visibility: visible; fill: rgb(235, 230, 239);"></path>
<path d="M1319 2063 l-45 -4 -90 -130 c-49 -71 -185 -268 -302 -437 l-212
-307 112 -3 c61 -1 117 -1 124 2 6 2 90 118 185 257 l174 252 3 -257 2 -256
105 0 105 0 -2 443 -3 442 -55 1 c-30 1 -76 -1 -101 -3z" data-index="1" style="opacity: 1; visibility: visible; fill: rgb(235, 230, 239);"></path>
<path d="M4816 1919 c-20 -16 -26 -29 -26 -58 0 -36 23 -71 46 -71 4 0 -2 7
-14 16 -31 21 -31 87 0 108 71 50 145 -38 86 -101 -12 -13 -16 -23 -10 -23 18
0 42 42 42 73 0 35 -40 77 -73 77 -13 0 -36 -9 -51 -21z" data-index="2" style="visibility: visible; fill: rgb(235, 230, 239); opacity: 1;"></path>
<path d="M4843 1860 c-1 -25 1 -37 4 -27 5 18 5 18 26 0 16 -13 18 -14 9 -2
-10 14 -10 18 3 23 16 6 20 32 6 40 -5 4 -7 -3 -4 -14 4 -15 0 -20 -15 -20
-13 0 -22 8 -25 23 -2 12 -4 2 -4 -23z" data-index="3" style="opacity: 1; visibility: visible; fill: rgb(235, 230, 239);"></path>
<path d="M2150 1863 c-8 -3 -32 -14 -52 -24 -38 -18 -38 -18 -38 1 0 19 -7 20
-105 20 l-105 0 0 -340 0 -340 105 0 105 0 0 210 c0 135 4 218 11 234 15 33
71 59 109 51 16 -4 41 -20 55 -37 l25 -30 0 -214 0 -214 105 0 106 0 -2 214
c0 134 3 221 10 234 15 28 77 55 108 47 14 -3 38 -19 54 -35 l29 -28 0 -216 0
-216 103 0 102 0 -5 257 c-5 275 -5 272 -62 345 -81 103 -252 119 -365 32
l-33 -25 -37 29 c-21 16 -53 35 -72 41 -34 11 -124 14 -151 4z" data-index="4" style="opacity: 1; visibility: visible; fill: rgb(235, 230, 239);"></path>
<path d="M3180 1861 c-90 -29 -185 -114 -221 -198 -72 -168 4 -369 169 -450
51 -25 70 -28 180 -32 l123 -3 -3 98 -3 99 -92 1 c-71 1 -98 5 -125 21 -104
61 -105 208 -1 270 90 52 217 14 262 -79 19 -40 21 -61 21 -226 l0 -182 100 0
100 0 0 340 0 340 -100 0 -100 0 0 -25 c0 -14 -2 -25 -4 -25 -2 0 -28 12 -57
28 -44 22 -67 27 -139 29 -47 1 -96 -1 -110 -6z" data-index="5" style="opacity: 1; visibility: visible; fill: rgb(235, 230, 239);"></path>
<path d="M1570 1520 l0 -340 100 0 100 0 0 340 0 340 -100 0 -100 0 0 -340z" data-index="6" style="opacity: 1; visibility: visible; fill: rgb(235, 230, 239);"></path>
<path d="M3780 1520 l0 -340 100 0 100 0 2 182 3 181 64 -99 c35 -54 86 -136
115 -181 l51 -82 124 -1 123 0 -14 23 c-8 12 -63 97 -123 190 -97 151 -106
169 -93 185 25 30 153 185 192 235 l38 47 -121 0 -121 0 -87 -107 c-49 -59
-103 -123 -120 -143 l-32 -35 -1 143 0 142 -100 0 -100 0 0 -340z" data-index="7" style="opacity: 1; visibility: visible; fill: rgb(235, 230, 239);"></path>
<path d="M4530 1520 l0 -340 100 0 100 0 0 340 0 340 -100 0 -100 0 0 -340z" data-index="8" style="opacity: 1; visibility: visible; fill: rgb(235, 230, 239);"></path>
<path d="M4853 1784 c3 -3 12 -4 19 -1 8 3 5 6 -6 6 -11 1 -17 -2 -13 -5z" data-index="9"></path>
</g>
</svg>