<?xml version="1.0" ?><!DOCTYPE svg  PUBLIC '-//W3C//DTD SVG 20010904//EN'  'http://www.w3.org/TR/2001/REC-SVG-20010904/DTD/svg10.dtd'><svg xmlns="http://www.w3.org/2000/svg" height="1599.000000pt" preserveAspectRatio="xMidYMid meet" version="1.0" viewBox="0 0 1600.000000 1599.000000" width="1600.000000pt"><rect width="100%" height="100%" fill="white"/>
<metadata>
Created by CoolUtils
</metadata>
<g fill="#000000" stroke="none" transform="translate(0.000000,1599.000000) scale(0.100000,-0.100000)">
<path d="M0 7995 l0 -7995 8000 0 8000 0 0 7995 0 7995 -8000 0 -8000 0 0 -7995z m3075 1314 c710 -62 1175 -501 1175 -1110 0 -542 -384 -936 -1030 -1055 -144 -27 -465 -24 -624 5 -419 76 -708 274 -860 592 -138 286 -138 641 -1 924 189 391 624 631 1180 653 22 1 94 -3 160 -9z m6490 -15 c407 -59 719 -254 899 -562 20 -33 36 -63 36 -66 0 -3 -165 -6 -366 -6 l-366 0 -86 89 c-126 128 -234 173 -422 174 -160 1 -289 -51 -395 -159 -75 -76 -118 -149 -158 -261 -27 -77 -31 -105 -35 -219 -5 -154 14 -251 75 -374 43 -89 151 -203 228 -242 150 -76 359 -87 520 -27 80 30 170 102 235 186 l55 73 378 0 379 0 -7 -32 c-33 -160 -169 -346 -348 -479 -154 -115 -399 -217 -612 -255 -127 -22 -368 -29 -495 -15 -57 7 -155 25 -216 41 -113 28 -289 93 -311 114 -13 11 -523 1299 -523 1319 0 6 19 43 42 81 96 163 209 291 348 395 279 208 698 291 1145 225z m-3790 -67 c191 -35 306 -88 408 -189 112 -110 171 -260 170 -433 0 -199 -82 -372 -227 -481 -79 -60 -117 -79 -216 -107 l-81 -24 53 -48 c131 -121 279 -294 536 -628 l122 -157 -472 2 -471 3 -211 392 -211 392 -262 1 -263 0 0 -395 0 -395 -347 2 -348 3 -1 73 -1 73 99 97 c200 194 298 398 329 678 8 78 8 135 0 218 -29 295 -136 523 -339 723 l-93 91 2 59 c1 32 4 62 6 66 3 4 393 6 866 4 749 -3 874 -5 952 -20z m1890 -19 c9 -24 84 -216 165 -428 81 -212 254 -660 384 -997 130 -337 236 -614 236 -617 0 -4 -150 -6 -334 -6 l-334 0 -42 130 -41 130 -477 -2 -476 -3 -36 -114 -36 -115 -223 288 -224 287 278 737 c153 405 280 740 282 745 2 4 197 7 433 7 l428 0 17 -42z m4043 -110 c33 -84 85 -216 115 -293 327 -832 637 -1629 637 -1636 0 -5 -141 -9 -329 -9 l-330 0 -19 53 c-11 28 -32 87 -47 130 l-28 77 -481 0 -482 0 -40 -127 -39 -128 -305 -2 -305 -3 67 39 c172 101 288 199 378 321 97 131 142 238 173 413 l15 77 -190 0 c-148 0 -189 3 -185 13 3 6 49 126 103 265 l98 252 93 0 c51 0 93 3 93 6 0 3 -23 50 -51 105 l-51 100 92 242 c51 133 95 245 97 250 2 4 197 7 433 7 l429 0 59 -152z m1172 -658 l0 -810 663 -2 662 -3 3 -232 2 -233 -803 0 -804 0 -12 26 c-6 15 -90 228 -186 474 l-175 448 0 571 0 571 325 0 325 0 0 -810z m1861 -842 c92 -27 169 -134 169 -234 0 -177 -157 -298 -324 -250 -172 50 -241 257 -133 398 64 83 181 119 288 86z"/>
<path d="M2795 8855 c-113 -25 -190 -68 -275 -154 -89 -89 -129 -164 -161 -297 -30 -127 -24 -334 14 -444 35 -104 72 -166 137 -231 100 -101 261 -159 438 -159 378 1 613 275 589 685 -20 319 -161 522 -413 589 -87 24 -244 29 -329 11z"/>
<path d="M4650 8605 l0 -215 403 0 c238 0 417 4 438 10 115 32 181 151 148 268 -16 58 -81 126 -135 141 -25 7 -188 11 -446 11 l-408 0 0 -215z"/>
<path d="M7207 8700 c-3 -8 -58 -195 -122 -415 -64 -220 -120 -412 -125 -427 l-9 -28 268 0 268 0 -132 428 c-154 501 -141 461 -148 442z"/>
<path d="M11188 8668 c-9 -29 -65 -224 -124 -433 -58 -209 -109 -386 -111 -392 -4 -10 54 -13 272 -13 218 0 276 3 273 13 -11 29 -240 731 -259 794 -11 37 -24 71 -28 76 -4 4 -15 -16 -23 -45z"/>
<path d="M14599 7547 c-96 -36 -144 -108 -137 -207 8 -109 90 -185 198 -184 61 1 102 18 142 61 76 79 76 197 0 276 -53 56 -137 78 -203 54z m151 -62 c28 -25 34 -68 15 -104 -10 -21 -13 -37 -7 -49 5 -9 12 -41 14 -69 5 -53 5 -53 -23 -53 -26 0 -29 3 -35 50 -8 60 -21 72 -70 68 l-38 -3 0 -55 c-1 -52 -2 -55 -29 -58 l-27 -3 0 148 0 149 90 -2 c70 -1 95 -6 110 -19z"/>
<path d="M14609 7453 c0 -4 -2 -23 -4 -41 l-4 -33 51 3 c58 3 81 25 62 56 -11 18 -103 31 -105 15z"/>
</g>
</svg>