<svg version="1.0" xmlns="http://www.w3.org/2000/svg" width="337.000000pt" height="234.000000pt" viewBox="0 0 337.000000 234.000000" preserveAspectRatio="xMidYMid meet">
<metadata>
Created by CoolUtils
</metadata>
<g transform="translate(0.000000,234.000000) scale(0.100000,-0.100000)" fill="#000000" stroke="none">
<path d="M2470 1685 c0 -25 5 -45 10 -45 6 0 10 8 11 18 0 12 3 10 10 -7 11
-29 19 -23 29 21 l8 33 1 -32 c2 -51 21 -39 21 13 0 38 -3 45 -17 42 -11 -2
-20 -16 -24 -33 l-5 -30 -8 33 c-12 50 -36 41 -36 -13z" data-index="0" style="opacity: 1; visibility: visible; fill: rgb(247, 246, 249);"></path>
<path d="M2570 1686 c0 -34 4 -46 15 -46 9 0 12 6 9 15 -4 9 0 15 10 15 9 0
16 -7 16 -15 0 -8 5 -15 11 -15 6 0 9 17 7 43 -3 39 -5 42 -35 45 -33 3 -33 3
-33 -42z m50 14 c0 -5 -7 -10 -15 -10 -8 0 -15 5 -15 10 0 6 7 10 15 10 8 0
15 -4 15 -10z" data-index="1" style="opacity: 1; visibility: visible; fill: rgb(247, 246, 249); stroke-width: 2px; stroke: rgb(247, 246, 249);"></path>
<path d="M720 1315 l0 -275 110 0 110 0 2 178 3 177 730 0 730 0 3 -62 3 -63
-673 -2 -673 -3 -3 -112 -3 -113 791 0 790 0 0 275 0 275 -960 0 -960 0 0
-275z" data-index="2" style="opacity: 1; visibility: visible; fill: rgb(247, 246, 249);"></path>
<path d="M720 875 c0 -94 0 -95 24 -95 21 0 24 4 23 33 -2 30 0 32 33 35 66 5
77 10 83 42 4 16 4 36 1 44 -8 22 -51 36 -109 36 l-55 0 0 -95z m114 46 c12
-19 -7 -41 -35 -41 -24 0 -29 4 -29 25 0 21 5 25 29 25 17 0 32 -4 35 -9z" data-index="3" style="opacity: 1; visibility: visible; fill: rgb(247, 246, 249);"></path>
<path d="M920 875 l0 -95 81 0 c71 0 80 2 77 18 -2 13 -11 16 -35 14 -66 -7
-73 1 -73 84 0 72 -1 74 -25 74 -25 0 -25 0 -25 -95z" data-index="4" style="opacity: 1; visibility: visible; fill: rgb(247, 246, 249);"></path>
<path d="M1166 948 c-7 -13 -22 -45 -31 -73 -10 -27 -22 -54 -27 -59 -16 -19
-8 -36 16 -36 20 0 27 10 46 60 12 33 26 62 29 64 4 3 17 -24 30 -60 21 -59
25 -64 52 -64 32 0 32 -2 -13 100 -14 30 -28 63 -31 73 -9 25 -54 22 -71 -5z" data-index="5" style="opacity: 1; visibility: visible; fill: rgb(247, 246, 249);"></path>
<path d="M1346 957 c-12 -9 -17 -23 -14 -47 3 -34 5 -36 63 -51 38 -10 60 -21
60 -30 0 -21 -53 -24 -75 -4 -22 20 -55 16 -55 -5 0 -26 70 -53 115 -45 47 8
70 27 70 59 0 31 -16 43 -78 57 -54 13 -68 33 -31 44 13 4 27 1 38 -9 22 -20
61 -21 61 -2 0 39 -113 63 -154 33z" data-index="6" style="opacity: 1; visibility: visible; fill: rgb(247, 246, 249);"></path>
<path d="M1527 964 c-18 -18 -5 -34 28 -34 l35 0 0 -75 c0 -73 1 -75 25 -75
23 0 24 3 27 73 l3 72 33 3 c25 3 32 8 30 20 -3 14 -18 17 -89 20 -47 1 -88 0
-92 -4z" data-index="7" style="opacity: 1; visibility: visible; fill: rgb(247, 246, 249);"></path>
<path d="M1730 876 l0 -96 25 0 26 0 -3 93 c-3 87 -4 92 -25 95 -22 3 -23 1
-23 -92z" data-index="8" style="opacity: 1; visibility: visible; fill: rgb(247, 246, 249);"></path>
<path d="M1840 944 c-28 -24 -31 -31 -28 -77 4 -63 36 -92 101 -89 23 0 57 1
75 2 32 0 32 0 32 50 l0 50 -50 0 c-38 0 -50 -4 -50 -15 0 -9 9 -15 25 -15 30
0 33 -15 4 -30 -31 -17 -78 -3 -85 26 -9 36 3 69 30 84 21 11 29 11 48 -2 40
-25 68 -29 68 -8 0 53 -116 69 -170 24z" data-index="9" style="opacity: 1; visibility: visible; fill: rgb(247, 246, 249);"></path>
<path d="M2060 875 l0 -95 81 0 c70 0 80 2 77 17 -2 12 -15 16 -53 17 l-50 1
-3 78 c-3 74 -4 77 -27 77 -25 0 -25 -1 -25 -95z" data-index="10" style="opacity: 1; visibility: visible; fill: rgb(247, 246, 249);"></path>
<path d="M2295 933 c-34 -78 -55 -134 -55 -143 0 -18 47 -11 54 8 3 9 12 35
19 56 7 22 17 41 23 43 5 2 19 -23 31 -54 17 -49 24 -59 47 -61 14 -2 26 0 26
5 0 4 -16 46 -35 93 -31 78 -37 85 -64 88 -27 3 -32 -1 -46 -35z" data-index="11" style="opacity: 1; visibility: visible; fill: rgb(247, 246, 249);"></path>
<path d="M2488 959 c-12 -6 -18 -22 -18 -44 0 -39 15 -51 79 -61 45 -7 61 -21
40 -35 -22 -13 -55 -11 -69 6 -16 19 -60 20 -60 2 0 -56 142 -74 175 -23 30
45 -2 79 -85 92 -44 7 -49 14 -24 35 14 11 21 10 46 -4 33 -19 68 -22 68 -7 0
6 -9 19 -20 30 -22 22 -101 28 -132 9z" data-index="12" style="opacity: 1; visibility: visible; fill: rgb(247, 246, 249);"></path>
</g>
</svg>