<svg version="1.0" xmlns="http://www.w3.org/2000/svg" width="1080.000000pt" height="1080.000000pt" viewBox="0 0 1080.000000 1080.000000" preserveAspectRatio="xMidYMid meet">
<metadata>
Created by CoolUtils
</metadata>
<g transform="translate(0.000000,1080.000000) scale(0.100000,-0.100000)" fill="#000000" stroke="none">
<path d="M0 5400 l0 -5400 5400 0 5400 0 0 5400 0 5400 -5400 0 -5400 0 0
-5400z m8074 4026 c291 -48 522 -143 744 -308 274 -202 483 -510 572 -838 56
-210 53 -69 57 -2458 4 -2287 -4 -3044 -32 -3177 -8 -38 -19 -90 -24 -116 -26
-122 -119 -332 -199 -451 -209 -310 -488 -527 -822 -638 -47 -15 -107 -33
-135 -39 -27 -6 -70 -16 -95 -22 -72 -19 -895 -24 -3180 -22 -1309 1 -2125 6
-2175 12 -208 26 -302 50 -469 119 -334 140 -619 408 -785 740 -49 97 -71 154
-106 277 -63 216 -58 24 -62 2820 -3 1795 -1 2586 7 2671 21 233 94 465 212
669 46 81 159 222 245 308 241 242 480 366 864 449 90 19 639 23 3019 22 2053
-1 2274 -3 2364 -18z" data-index="0" style="opacity: 1; visibility: visible; fill: rgb(219, 219, 220);"></path>
<path d="M3000 7555 c0 -3 1295 -1297 1465 -1463 2 -2 143 135 314 305 l310
309 -427 427 -427 427 -618 0 c-339 0 -617 -2 -617 -5z" data-index="1" style="opacity: 1; visibility: visible; fill: rgb(219, 219, 220);"></path>
<path d="M4790 5776 c-981 -981 -1786 -1789 -1788 -1796 -4 -11 31 -12 184 -7
104 4 383 7 620 7 l431 0 582 581 c320 319 586 579 591 577 6 -2 270 -263 588
-580 l577 -576 618 -4 c339 -2 617 -2 617 1 0 3 -401 407 -891 897 l-891 891
898 896 898 897 -624 0 -625 0 -1785 -1784z" data-index="2" style="opacity: 1; visibility: visible; fill: rgb(219, 219, 220);"></path>
<path d="M3009 3089 c-9 -5 22 -42 103 -123 63 -64 119 -116 125 -116 5 0 31
23 58 50 l50 50 -70 69 -70 69 -92 5 c-50 2 -97 1 -104 -4z" data-index="3" style="opacity: 1; visibility: visible; fill: rgb(219, 219, 220);"></path>
<path d="M3645 3093 l-50 -4 -305 -304 -305 -305 110 0 110 0 95 95 c52 52 97
95 101 95 3 0 49 -43 102 -95 l95 -95 109 0 108 0 -149 149 c-82 82 -147 154
-145 160 2 6 69 76 149 156 121 122 140 145 120 145 -14 0 -41 2 -60 4 -19 2
-57 1 -85 -1z" data-index="4" style="opacity: 1; visibility: visible; fill: rgb(219, 219, 220);"></path>
<path d="M3979 3089 c-6 -3 -9 -37 -7 -75 l3 -69 153 -3 152 -3 0 -229 0 -230
75 0 75 0 0 230 0 230 155 0 155 0 0 75 c0 53 -4 75 -12 76 -44 5 -742 3 -749
-2z" data-index="5" style="opacity: 1; visibility: visible; fill: rgb(219, 219, 220);"></path>
<path d="M5165 3089 c-63 -11 -90 -22 -138 -55 -187 -132 -163 -415 44 -525
43 -23 51 -24 289 -24 236 0 247 1 288 23 60 32 121 97 149 160 66 149 -16
344 -169 400 -48 18 -84 22 -240 24 -100 2 -201 0 -223 -3z m431 -175 c51 -38
68 -70 68 -128 0 -43 -5 -61 -27 -90 -50 -64 -64 -68 -287 -64 -183 3 -201 5
-227 24 -88 65 -97 170 -21 241 41 39 66 42 270 40 181 -2 199 -4 224 -23z" data-index="6" style="opacity: 1; visibility: visible; fill: rgb(219, 219, 220);"></path>
<path d="M7078 3092 c-17 -3 -18 -26 -18 -308 l0 -304 379 0 379 0 4 23 c2 12
2 46 0 75 l-4 52 -304 0 -304 0 0 230 0 230 -22 1 c-70 4 -95 4 -110 1z" data-index="7" style="opacity: 1; visibility: visible; fill: rgb(219, 219, 220);"></path>
<path d="M6155 3061 c-83 -38 -138 -102 -160 -186 -42 -154 18 -293 158 -367
40 -22 52 -23 282 -23 l240 0 57 28 c62 30 106 74 140 140 38 73 29 235 -17
296 -33 45 -96 97 -142 117 -51 23 -63 24 -276 24 -221 -1 -222 -1 -282 -29z
m499 -135 c44 -18 86 -75 93 -124 7 -51 -25 -113 -74 -147 -37 -25 -40 -25
-235 -25 l-196 0 -44 33 c-77 59 -88 152 -26 222 16 19 44 39 62 44 53 16 381
13 420 -3z" data-index="8" style="opacity: 1; visibility: visible; fill: rgb(219, 219, 220);"></path>
</g>
</svg>